<svg data-name="Layer 1" xmlns="http://www.w3.org/2000/svg" width="148" height="73" viewBox="0 0 148 73">
  <defs>
    <style>
      .text {
        fill: #fff;
      }
	  .outline {
		fill: #000000;
	  }
	  
	  .text-mobile {
	    fill: #000000;
	  }
	  
	  .mobile {
		display: block;
	  }
	  
	  .tablet,
	  .desktop {
	    display: none;
	  }
	  
	  @media (min-width: 768px) {
	    .desktop,
		.mobile {
		  display: none;
		}
		.tablet {
		  display: block;
		}
	  }	 
	  
	  @media (min-width: 1250px) {
	    .desktop {
		  display: block;
		}
		.tablet,
		.mobile {
		  display: none;
		}
	  }
    </style>
  </defs>
  <title>logo-desktop</title>
  <g class="desktop">
	  <g class="outline" data-name="Layer 2">
		<g>
		  <path d="M143.16,31.4a39,39,0,0,1-4.65,2.77,17.6,17.6,0,0,0-.59-5.12c.05-.34.1-.67.14-1,.38-3,.66-7.12-2-9.22-.34-.26-1.25,0-1.92.27a6.4,6.4,0,0,0-.5-.41c-.08-.24-.16-.49-.23-.74s-.17-.18-.36-.21c.29-.38.26-.82-.42-1.09-.38-.15-.76-.29-1.14-.41-.07-.08-.13-.1-.17-.06h0a23.42,23.42,0,0,0-2.86-.71,5.68,5.68,0,0,1,.55-1,5.81,5.81,0,0,1,.43-.43l.19-.17.07-.06.09-.06c.37-.29.84-.87.22-1.2a2.1,2.1,0,0,0-2,.23,6.57,6.57,0,0,0-2.09,2.36,51.35,51.35,0,0,0-6.08-.07.89.89,0,0,0,.14-.25c.18-.59-.91-.53-1.19-.49-1.56.2-3.12.41-4.69.6,1.37-3.77,3.09-8.58,1-12.26C113.89.55,111.18.08,109,0a13.78,13.78,0,0,0-7,1.63c-4.76,2.62-7.11,7.71-8.21,13.14a1.83,1.83,0,0,0-2.64.47c-.13.32-.23.64-.33,1a1.53,1.53,0,0,0-.35.64.94.94,0,0,1,0,.16h-.19l.06-.31a.66.66,0,0,0,.28-.36c.57-2.3,1.16-4.59,2-6.82.27-.76-2.51-.4-2.81.42-.42,1.19-.78,2.41-1.12,3.62a.94.94,0,0,0-.42.33l0,.1a.87.87,0,0,0-.46-.17v-1c0-.44-2.83,0-2.83.75V15.2a2.48,2.48,0,0,0-.47.27l-.19.17a.39.39,0,0,0-.12.24s0,.06,0,.08l0,.07a.31.31,0,0,0,0,.47,1.19,1.19,0,0,0,.74.16l.14,0v.47h-.67l-.41-.05c0-.39-.68-.46-1.35-.33v-.15c-.11-.6-.18-1.19-.23-1.79a3.47,3.47,0,0,0,.68-.31c.15-.11.32-.23.32-.43v-.2c0-.18-.41-.2-.5-.21a2.83,2.83,0,0,0-.58,0C82,12.38,82,11.07,82,9.76c0-.84-2.82-.32-2.82.76a52.84,52.84,0,0,0,.19,5.34h-.27V14.34c0-1.05-1.29-1.22-2.14-.81a1,1,0,0,0,.37-1,29.94,29.94,0,0,1-1-4.29c-.18-1.39-3-.68-2.82.76a31.66,31.66,0,0,0,1,4.29c.24.82,1.34.88,2.11.5a1,1,0,0,0-.37.77v.62a1.77,1.77,0,0,0-.77-.16c-1.06,0-1.68.89-1.4,1.48l-.49-.08a13.87,13.87,0,0,1-.72-3.83c0-.94-1.27-1.05-2.11-.67a.37.37,0,0,0,0-.17,14,14,0,0,1-.78-2.53c-.33-1.35-3.15-.6-2.82.75.16.64.3,1.28.52,1.9h-.06a2.63,2.63,0,0,0-.85.39c-.83.08-1.83.57-1.75,1.21.06.48.13,1,.21,1.43l-1.64.26a12.06,12.06,0,0,1-.62-2.45c-.13-.92-1.56-.85-2.33-.26a22.92,22.92,0,0,0-3.12-5.76c-2.63-3.44-7.1-4.61-11.25-3.79a8.94,8.94,0,0,0-5,2.64A6,6,0,0,0,40,10.32a19.25,19.25,0,0,0,1.58,6,2.62,2.62,0,0,0-.94.14c-.29.12-.56.25-.84.39-1.94,0-3.87,0-5.8-.07-4.18-.19-8.3-.86-12.5-.74-.92,0-1.53.72-1.46,1.26a4.36,4.36,0,0,0-2.15,2.29,52.3,52.3,0,0,0-5.33-3.21c-.69-.35-3.3.71-2.29,1.22a50.6,50.6,0,0,1,5.28,3.22,2.2,2.2,0,0,0,1.84-.07l.17-.08a9.62,9.62,0,0,0,.24,4.49.55.55,0,0,0,.17.27,8.68,8.68,0,0,0,0,1,.86.86,0,0,0,0,.16,1.21,1.21,0,0,0-.76.84,40.09,40.09,0,0,0-.3,4.23,1.13,1.13,0,0,0-.49.8,50.15,50.15,0,0,0,.47,9.95,74.86,74.86,0,0,0,1.17,8c.06.41.12.83.17,1.25a9.59,9.59,0,0,0-.24,3.48c-.88.17-1.73.87-1.23,1.62a9,9,0,0,0,2.61,2.65,2.32,2.32,0,0,0-1.88.55c-.81.81-1.71,1.53-2.53,2.34a.59.59,0,0,0,.29,1.08,2.31,2.31,0,0,0,2-.54c.82-.8,1.71-1.53,2.53-2.34a.64.64,0,0,0,.21-.73c3.2,1.74,7.23,1.27,11.11,1a34.67,34.67,0,0,0-2.17,5c-.26.72,2.51.38,2.8-.43a33.77,33.77,0,0,1,2.1-4.9c3.74.12,7.48.12,11.22.05a1,1,0,0,0,.74.34,34.64,34.64,0,0,0,9.69-.7c4.79-.23,9.58-.52,14.37-.81,7.53-.19,15-.35,22.58-.32l.32.32a1.35,1.35,0,0,0,1,.33l.2,0c.71,0,1.42.09,2.14.14a1.88,1.88,0,0,0,.56,0h0l2.35.21a1.15,1.15,0,0,0,.79.36c3.8.25,7.61.52,11.42.7a1,1,0,0,0,.82.34c7.07.06,15.28,2.81,21.56-1.73.5-.36.27-.88-.26-1a1.84,1.84,0,0,0-.33,0l0,0a60.09,60.09,0,0,0,3-8.56,1.06,1.06,0,0,0,.64-.86,33.32,33.32,0,0,1,.38-3.64c.16-.88.31-1.77.44-2.66.38-2.17.8-4.36,1-6.54A49.1,49.1,0,0,0,145,32.53C146.56,31.42,144.21,30.65,143.16,31.4Zm-55.33-15-.13.12c.07-.31.15-.62.23-.93H88Z" transform="translate(0 0)"></path>
		  <path d="M63.26,12.63c.13.19.56.21.75.21a3,3,0,0,0,1.11-.22c.4-.17,1.1-.56.77-1.07s-.61-1.19-1-1.76c-.12-.19-.56-.21-.75-.21a3,3,0,0,0-1.1.22c-.41.17-1.1.56-.77,1.07S62.9,12.06,63.26,12.63Z" transform="translate(0 0)"></path>
		  <path d="M20.68,10.91c.22.64,1.11.64,1.65.5s1.39-.62,1.18-1.26a4.76,4.76,0,0,0-.9-1.78,1.69,1.69,0,0,0-1.9-.15c-.41.19-1.18.84-.69,1.35A3.07,3.07,0,0,1,20.68,10.91Z" transform="translate(0 0)"></path>
		  <path d="M30.66,13.89c.84,0,3.07-1.27,1.19-1.27C31,12.62,28.77,13.89,30.66,13.89Z" transform="translate(0 0)"></path>
		  <path d="M122.56,12.27a2.12,2.12,0,0,0,1.06-.06,2.09,2.09,0,0,0,.94-.47,5.17,5.17,0,0,0,1-1.18c.1-.2.17-.4,0-.59a1.17,1.17,0,0,0-.77-.25,2.77,2.77,0,0,0-1.1.22,1.58,1.58,0,0,0-.76.56,3.54,3.54,0,0,1-.35.51l0,0,0,0-.2.2a.67.67,0,0,0-.28.61A.67.67,0,0,0,122.56,12.27Z" transform="translate(0 0)"></path>
		  <path d="M135.86,17.69a3.53,3.53,0,0,0,1.89-.66,21.19,21.19,0,0,0,3.63-3.64c.29-.39-1-.25-1.12-.23a2.73,2.73,0,0,0-1.66.74,19.72,19.72,0,0,1-3.39,3.38C134.71,17.69,135.65,17.71,135.86,17.69Z" transform="translate(0 0)"></path>
		  <path d="M146.74,44.77h-4.87a1.61,1.61,0,0,0-1.56,1.14c-.09.74.76.92,1.31.92h4.87A1.61,1.61,0,0,0,148,45.69C148.13,45,147.29,44.77,146.74,44.77Z" transform="translate(0 0)"></path>
		  <path d="M57,60.78c-.5.08-1.41.3-1.64.84A33.82,33.82,0,0,0,54,65.51c-.21.74,2.57.33,2.8-.45a34,34,0,0,1,1.36-3.9C58.4,60.64,57.21,60.75,57,60.78Z" transform="translate(0 0)"></path>
		  <path d="M61.6,63.37a4,4,0,0,0-1,.16,3.84,3.84,0,0,0-1,.38c-.14.08-.33.2-.33.39s0,.23,0,.35a.72.72,0,0,1-.13.28h0c-.06.08-.11.18,0,.25a1.23,1.23,0,0,0,.71.06A4.09,4.09,0,0,0,61,65a2,2,0,0,0,.8-.41.9.9,0,0,0,.28-.5,2.32,2.32,0,0,0,.05-.53C62.09,63.38,61.67,63.38,61.6,63.37Z" transform="translate(0 0)"></path>
		  <path d="M116.65,67.05c-.35-.68-3,.33-2.82.76.84,1.64,1.94,3.12,2.92,4.67.44.69,3-.41,2.83-.75C118.59,70.17,117.5,68.69,116.65,67.05Z" transform="translate(0 0)"></path>
		  <path d="M120.74,64.71c-.29-.59-1.06-.56-1.62-.41-.35.09-1.49.6-1.2,1.17l1.17,2.34c.29.59,1.07.56,1.62.41.35-.09,1.49-.6,1.2-1.17Z" transform="translate(0 0)"></path>
		  <path d="M5.67,43.11c-1.49.35-3,.57-4.48,1-.54.15-1.34.64-1.16,1.32s1.12.71,1.66.56c1.48-.4,3-.62,4.48-1,.54-.12,1.34-.65,1.16-1.31S6.21,43,5.67,43.11Z" transform="translate(0 0)"></path>
		</g>
	  </g>
	  <g class="text" data-name="Layer 1">
		<g>
		  <path d="M43.75,40.11c-.08-2.71-.51-5.4-.48-8.11,0-2.2.4-4.45-.36-6.56.05-.23.1-.47.14-.71.2-1.06-3.3-.5-3.85.46-.34.29-.52.63-.37,1a2.77,2.77,0,0,0,.1.26,78.24,78.24,0,0,1-2.65,9.5c-.4,1.2-.89,2.37-1.31,3.57a37,37,0,0,1-1.66-3.41c-1.38-3.47-2.63-7-4.32-10.3.19-1.54-3.23-1.38-3.91,0a8.76,8.76,0,0,0-.44,5.26A45.43,45.43,0,0,1,25,37.24c.05,4,.36,8,.42,12a1,1,0,0,0-.09,1.39,3.3,3.3,0,0,0,.57.55c.92.73,3.54.11,3.53-1.28,0-4.16-.31-8.32-.42-12.47l0-1.23.18.44a34.05,34.05,0,0,0,2.2,4.7,21.14,21.14,0,0,1,1.82,4.72.76.76,0,0,0-.23.71c0,.18.07.29.25.36.65.56,1.86.28,2.53,0a6.65,6.65,0,0,0,.84-.43c.35-.21.89-.69.73-1.17l-.09-.28a24,24,0,0,0,1-4,24.59,24.59,0,0,1,1.31-4.17L39.67,39c.21,2.57,0,5.11,0,7.69a11.59,11.59,0,0,0,.22,2.49,11.18,11.18,0,0,1,.29,1.9c-.62.57-.44,1.27.38,1.45a3.38,3.38,0,0,0,2.8-.75c1.21-1.12.64-2.87.36-4.28C43.27,45.16,43.83,42.51,43.75,40.11Z" transform="translate(0 0)"></path>
		  <path d="M52.19,40.79c-.07-2-.77-3.9-.78-5.93a48.89,48.89,0,0,0-.16-6.95c-.1-.73-4.09.11-4,1.06a39.21,39.21,0,0,1,.16,6.41,41,41,0,0,0,.74,6c.27,2.08-.08,4.2.15,6.27.11,1,.76,2.77.09,3.62-.42.53,1.48.34,1.57.33a4,4,0,0,0,2.32-1.05c.66-.84.2-2.45.06-3.39A55.71,55.71,0,0,1,52.19,40.79Z" transform="translate(0 0)"></path>
		  <path d="M68.67,37.44c-2.08-2.81-5.94-.79-8.64-1.56-1.39-.39-1.41-2.29-1.4-3.42a36.7,36.7,0,0,0-.28-4.19,3.46,3.46,0,0,1,.75-2.93,4.79,4.79,0,0,1,.82-.34A7.37,7.37,0,0,1,61,24.91c1.56-.07,4.65.23,4.06,2.5-.27,1,3.62.44,3.91-.64,1.22-4.64-7.35-3.75-9.78-3.11-2.23.59-4.69,1.86-4.82,4.44-.06,1.23.28,2.4.33,3.62.06,1.4-.2,2.8.29,4.16,1.1,3,5.57,1.59,7.85,1.76,3.88.29,2.72,5.52,2.78,8,0,1.3,1.19,3.46.21,4.55-.6.67-2,.71-2.82.77s-2.22.32-2.77-.46c-1-1.43.1-3.83-.12-5.47C60,44,56,44.88,56.17,46c.35,2.65-1.41,6.19,2.42,6.65a18.18,18.18,0,0,0,7.57-.94,8.83,8.83,0,0,0,3.27-1.81c1-.94.7-2.36.42-3.57C69.17,43.42,70.59,40,68.67,37.44Z" transform="translate(0 0)"></path>
		  <path d="M86.15,37.25c-.12-3.81-.69-7.58-.71-11.4,0-2-4-1.32-4,.34,0,3.64.5,7.24.69,10.87v.22c-2,0-3.93.18-5.9.25.2-4.68-.62-9.31-.44-14,0-.58-3.91-.09-4,1.06-.17,4.52.6,9,.46,13.52-.06,2.15-.25,4.3-.26,6.46a21.45,21.45,0,0,0,.33,3.29,8.26,8.26,0,0,1,.18,3.35c-.23.78,3.6.29,3.9-.7.55-1.8-.22-4.08-.41-5.89a31.33,31.33,0,0,1,.09-5.3,29.9,29.9,0,0,1,6.13,0q.14,2.09.33,4.17c.1,1.17.18,2.33.2,3.51a10.71,10.71,0,0,1-.23,3.49c-.78,2.07,3.18,1.9,3.76.37.71-1.89.51-4.24.39-6.22C86.56,42.17,86.23,39.72,86.15,37.25Z" transform="translate(0 0)"></path>
		  <path d="M103.24,41.76a74.74,74.74,0,0,0-3.65-7.87c1-2,2-3.93,3-5.94.84-1.82,1.46-3.85,3.11-5.14.58-.45.55-.9-.26-1a4.51,4.51,0,0,0-2.79.75,10.84,10.84,0,0,0-3.23,4.31C98.44,29,97.46,31,96.44,33l-.23.45a1.15,1.15,0,0,0-.64,1.27c-.8,1.58-1.62,3.15-2.53,4.66-.3-5.59-1-11.17-1.16-16.75,0-1.29-4-.49-3.95,1.06.25,6.93,1.23,13.84,1.3,20.77l0,0c-.3.31-.19.5,0,.61,0,1.76-.06,3.53-.21,5.3-.47.75.47,1.15,1.1,1.15h.09c.75,0,2.65-.35,2.75-1.38.19-2.12.25-4.23.23-6.35a31.11,31.11,0,0,0,4.09-5.68,29.2,29.2,0,0,1,2,4.62c.87,2.77,2.32,5.31,3.16,8.09.55,1.82,4.5.74,4-1.06C105.56,47.07,104.18,44.5,103.24,41.76Z" transform="translate(0 0)"></path>
		  <path d="M127,37.08c-.21-.83-1.38-.85-2.29-.77,0-.34,0-.68,0-1-.13-2.68-.17-5.43-.39-8.1-.21-2.48-1.6-3.37-4-3.28a24.21,24.21,0,0,0-7.55,1.42,7,7,0,0,0-4.6,5.73c-.56,3,.24,6.27.37,9.33.16,3.54.07,7.08.07,10.61,0,.58,4,0,4-1,0-2.81,0-5.61,0-8.41,0-.82,0-1.64-.1-2.46,1.38-.6,3.72,0,5.09.14a15.49,15.49,0,0,0,3.27-.29c0,2.33.11,4.68.21,7,0,1.19.48,3.56-.36,4.55-.44.52,1.5.34,1.57.33a4,4,0,0,0,2.32-1c1-1.13.47-3.82.41-5.17-.08-1.93-.1-3.86-.14-5.79C125.9,38.66,127.18,37.94,127,37.08Zm-14.75-.15c-.11-1.25-.22-2.51-.31-3.77-.16-2.36.12-5.64,2.31-7.07a7.44,7.44,0,0,1,2.38-.44,3.74,3.74,0,0,1,2.85.19c1.22.81.92,3.69.92,4.92,0,2,.21,4,.31,6.05a11.82,11.82,0,0,1-1.69.08C116.67,36.84,114.39,36.47,112.21,36.93Z" transform="translate(0 0)"></path>
		  <path d="M48.77,25.18a3.26,3.26,0,0,0,1.49-.53l.26-.22c.52-.34,1-.84.73-1.37a8.07,8.07,0,0,1-.42-3.45c0-1-1-1.26-1.79-1.19S46.85,19,46.84,20A16.92,16.92,0,0,0,47,23a2.12,2.12,0,0,0-.1.36.7.7,0,0,0,.14.59c0,.05,0,.09,0,.14s0,.22,0,.34a.91.91,0,0,0,.43.53A2.19,2.19,0,0,0,48.77,25.18Z" transform="translate(0 0)"></path>
		</g>
	  </g>
  </g>
  <g class="tablet">
	<g class="outline" data-name="Layer 2">
	  <path d="M110.23,41.88c4.39.87.84-35.86.14-38.31C108.42-3,83.7,1.43,78.2,1.85c-12.73,1-25.19-1-37.62-.37-6.2.29-34.85-1.82-37.52,2C-2,10.67.41,29.26,1.79,38.54c-4,.78,2.31,4.15,3.13,4.9,6.32,2.19,16.36-.22,23,.39,15.44,1.47,31.8-2.19,47.28-.95,4.49,1.14,9.6,1,14.22,1.24,3.42,5.57,19.67-2.47,20.8-2.24Z" transform="translate(0 0)"></path>
	</g>
	<g class="text" data-name="Layer 1">
	  <g>
	    <path d="M26.06,24.41c-.08-2.55-.49-5.07-.45-7.62,0-2.07.37-4.19-.34-6.17,0-.22.09-.45.13-.67.18-1-3.1-.47-3.62.44a.77.77,0,0,0-.35.91l.09.24A73,73,0,0,1,19,20.47c-.38,1.13-.84,2.23-1.23,3.36a35.25,35.25,0,0,1-1.56-3.21c-1.3-3.26-2.48-6.55-4.07-9.68.18-1.45-3-1.3-3.67,0a8.21,8.21,0,0,0-.42,4.95,41.54,41.54,0,0,1,.36,5.8c.05,3.77.34,7.53.4,11.31a.94.94,0,0,0-.09,1.3,3.78,3.78,0,0,0,.54.52c.86.69,3.33.1,3.32-1.21,0-3.91-.29-7.81-.4-11.72,0-.39,0-.77,0-1.15.06.14.11.27.16.41a33,33,0,0,0,2.08,4.42A20.72,20.72,0,0,1,16.14,30a.73.73,0,0,0-.22.68c0,.17.06.27.24.34.6.52,1.74.26,2.38,0a5.74,5.74,0,0,0,.78-.4c.33-.2.84-.65.69-1.1,0-.09-.05-.18-.08-.27a23.24,23.24,0,0,0,.92-3.72,22.66,22.66,0,0,1,1.23-3.93c0,.59.1,1.18.14,1.77.2,2.42,0,4.81,0,7.23A10.84,10.84,0,0,0,22.44,33a9.48,9.48,0,0,1,.26,1.79.73.73,0,0,0,.37,1.36,3.17,3.17,0,0,0,2.63-.7c1.14-1,.6-2.7.34-4C25.61,29.16,26.13,26.67,26.06,24.41Z" transform="translate(0 0)"></path>
	    <path d="M34,25.05c-.07-1.89-.73-3.66-.74-5.57a46.05,46.05,0,0,0-.15-6.54c-.1-.68-3.84.1-3.71,1a37.91,37.91,0,0,1,.15,6,36.31,36.31,0,0,0,.69,5.6c.26,1.95-.08,3.95.14,5.9.11.91.72,2.6.09,3.4-.4.5,1.39.32,1.47.31a3.69,3.69,0,0,0,2.19-1c.62-.78.18-2.3,0-3.18A51.53,51.53,0,0,1,34,25.05Z" transform="translate(0 0)"></path>
	    <path d="M49.49,21.9c-2-2.64-5.59-.74-8.12-1.46-1.31-.37-1.33-2.16-1.32-3.22a34.45,34.45,0,0,0-.26-3.94,3.23,3.23,0,0,1,.71-2.75,4.64,4.64,0,0,1,.76-.33,8.27,8.27,0,0,1,1-.08c1.47-.07,4.37.22,3.81,2.35-.25,1,3.41.41,3.68-.6C50.92,7.5,42.86,8.34,40.58,9c-2.1.55-4.41,1.75-4.53,4.17-.06,1.16.26,2.26.31,3.4a12.49,12.49,0,0,0,.27,3.91c1,2.83,5.24,1.5,7.38,1.66,3.65.27,2.56,5.19,2.61,7.48,0,1.22,1.12,3.25.2,4.28-.57.62-1.88.66-2.65.73s-2.09.29-2.6-.44c-1-1.35.08-3.61-.12-5.15-.11-.88-3.86-.09-3.71,1,.32,2.49-1.33,5.83,2.27,6.25a17,17,0,0,0,7.12-.88,8.25,8.25,0,0,0,3.08-1.7c1-.89.66-2.23.39-3.36C50,27.53,51.3,24.34,49.49,21.9Z" transform="translate(0 0)"></path>
	    <path d="M65.93,21.72c-.11-3.58-.65-7.13-.67-10.72,0-1.87-3.76-1.24-3.75.33,0,3.42.47,6.8.65,10.21v.21c-1.85,0-3.7.17-5.55.23.19-4.39-.58-8.75-.42-13.14,0-.56-3.67-.09-3.71,1-.17,4.25.55,8.46.43,12.71-.06,2-.24,4.05-.25,6.07a20.1,20.1,0,0,0,.31,3.1,7.82,7.82,0,0,1,.17,3.15c-.22.73,3.38.28,3.67-.66.51-1.68-.21-3.83-.38-5.54a29.61,29.61,0,0,1,.07-5,28.53,28.53,0,0,1,5.77,0c.09,1.31.19,2.61.31,3.92.1,1.1.17,2.2.19,3.3a10.26,10.26,0,0,1-.21,3.28c-.74,2,3,1.8,3.53.35.67-1.78.48-4,.36-5.85C66.32,26.35,66,24,65.93,21.72Z" transform="translate(0 0)"></path>
	    <path d="M82,26a68.93,68.93,0,0,0-3.43-7.4c1-1.85,1.92-3.7,2.78-5.59.79-1.71,1.38-3.62,2.93-4.83.54-.43.52-.85-.25-.9A4.22,4.22,0,0,0,81.4,8a10.22,10.22,0,0,0-3,4.05c-.89,1.95-1.8,3.86-2.77,5.76l-.21.43a1.1,1.1,0,0,0-.61,1.2c-.75,1.48-1.51,3-2.37,4.37-.28-5.25-.9-10.49-1.09-15.75,0-1.21-3.77-.46-3.71,1,.23,6.51,1.15,13,1.22,19.53l0,.05c-.29.29-.18.47,0,.57,0,1.66-.06,3.32-.2,5-.45.7.44,1.08,1,1.08h.09c.7,0,2.49-.33,2.58-1.3a59.56,59.56,0,0,0,.22-6,29.4,29.4,0,0,0,3.85-5.35A28.46,28.46,0,0,1,78.29,27c.81,2.61,2.18,5,3,7.61.52,1.71,4.23.7,3.71-1C84.18,31,82.88,28.55,82,26Z" transform="translate(0 0)"></path>
	    <path d="M104.31,21.57c-.2-.79-1.31-.81-2.16-.73l0-1c-.12-2.52-.16-5.1-.37-7.62-.2-2.33-1.51-3.17-3.77-3.08a23.07,23.07,0,0,0-7.1,1.33,6.63,6.63,0,0,0-4.33,5.39c-.52,2.86.23,5.9.35,8.78.15,3.32.07,6.65.06,10,0,.54,3.72,0,3.72-1,0-2.63,0-5.27,0-7.9,0-.78-.05-1.55-.1-2.32,1.3-.56,3.5,0,4.79.14a14.36,14.36,0,0,0,3.08-.28c0,2.19.1,4.4.19,6.59,0,1.12.46,3.35-.33,4.28-.41.49,1.4.33,1.47.32a3.78,3.78,0,0,0,2.19-1c.9-1.06.43-3.6.38-4.87-.07-1.81-.1-3.63-.13-5.44C103.31,23.05,104.51,22.38,104.31,21.57Zm-13.88-.14c-.09-1.19-.2-2.37-.28-3.56-.15-2.21.11-5.29,2.17-6.64a6.84,6.84,0,0,1,2.23-.41,3.48,3.48,0,0,1,2.69.18c1.15.76.86,3.47.86,4.62,0,1.9.2,3.79.3,5.7a14.17,14.17,0,0,1-1.6.07C94.63,21.34,92.49,21,90.43,21.43Z" transform="translate(0 0)"></path>
	    <path d="M30.78,10.37a3.07,3.07,0,0,0,1.4-.5l.24-.2c.5-.32.92-.79.69-1.29a7.41,7.41,0,0,1-.39-3.24C32.73,4.23,31.81,4,31,4S29,4.57,29,5.46a14.91,14.91,0,0,0,.1,2.84,2.19,2.19,0,0,0-.1.34.67.67,0,0,0,.14.56v.13c0,.1,0,.21,0,.31a.87.87,0,0,0,.41.51A2.08,2.08,0,0,0,30.78,10.37Z" transform="translate(0 0)"></path>
	  </g>
	</g>
  </g>
  <g class="mobile">
    <g class="text-mobile">
      <path d="M4.18,26.3c0-3.47-.26-6.94-.36-10.41,0-.34,0-.68,0-1l.15.37a28.55,28.55,0,0,0,1.84,3.92,18.06,18.06,0,0,1,1.52,3.93.66.66,0,0,0-.2.6c0,.15.06.25.21.31.54.46,1.55.23,2.12,0a4.52,4.52,0,0,0,.69-.36c.29-.18.75-.57.62-1a2.17,2.17,0,0,1-.07-.24,21.61,21.61,0,0,0,.81-3.31,21.27,21.27,0,0,1,1.09-3.48c0,.52.09,1,.13,1.56.17,2.15,0,4.27,0,6.43a9.6,9.6,0,0,0,.18,2.07,8.91,8.91,0,0,1,.24,1.59.65.65,0,0,0,.32,1.21,2.83,2.83,0,0,0,2.34-.62c1-.94.53-2.4.3-3.58-.39-2,.08-4.18,0-6.19-.07-2.26-.43-4.5-.4-6.77,0-1.83.32-3.71-.31-5.47,0-.2.08-.39.12-.6.16-.87-2.75-.41-3.21.4-.29.23-.44.51-.31.8,0,.07.05.15.08.22a64.79,64.79,0,0,1-2.21,7.93c-.34,1-.75,2-1.09,3A30.06,30.06,0,0,1,7.4,14.74C6.25,11.85,5.2,8.93,3.79,6.15,4,4.86,1.1,5,.53,6.17a7.32,7.32,0,0,0-.37,4.39,37.1,37.1,0,0,1,.32,5.15c0,3.35.3,6.69.35,10a.86.86,0,0,0-.07,1.16,2.33,2.33,0,0,0,.48.46C2,28,4.18,27.46,4.18,26.3Z" transform="translate(0 0)"></path>
      <path d="M22.38,7.93c-.09-.61-3.42.08-3.3.88a33.05,33.05,0,0,1,.13,5.36,33.26,33.26,0,0,0,.62,5c.22,1.73-.07,3.5.12,5.23.09.81.64,2.31.08,3-.36.45,1.24.28,1.31.27a3.3,3.3,0,0,0,1.94-.87c.55-.7.16-2,0-2.83a44.29,44.29,0,0,1-.16-5.28c-.06-1.68-.64-3.26-.65-4.95A41.58,41.58,0,0,0,22.38,7.93Z" transform="translate(0 0)"></path>
      <path d="M25.5,14.57c.91,2.52,4.65,1.33,6.55,1.47,3.24.24,2.27,4.61,2.31,6.65,0,1.08,1,2.88.18,3.79-.5.56-1.67.59-2.35.65s-1.85.26-2.31-.39c-.84-1.19.08-3.2-.1-4.57-.1-.78-3.43-.08-3.3.89.29,2.21-1.18,5.17,2,5.55a15.08,15.08,0,0,0,6.32-.78,7.47,7.47,0,0,0,2.73-1.51c.87-.79.59-2,.35-3-.57-2.46.62-5.29-1-7.45-1.73-2.35-5-.66-7.21-1.3-1.16-.33-1.17-1.91-1.17-2.86a31.3,31.3,0,0,0-.23-3.49,2.87,2.87,0,0,1,.63-2.45,3.47,3.47,0,0,1,.68-.28,6.41,6.41,0,0,1,.9-.08c1.3-.06,3.88.2,3.39,2.09-.23.85,3,.36,3.26-.54C38.18,3.1,31,3.84,29,4.38c-1.86.5-3.91,1.56-4,3.71-.05,1,.23,2,.27,3A11.44,11.44,0,0,0,25.5,14.57Z" transform="translate(0 0)"></path>
      <path d="M40,16.44c-.05,1.8-.2,3.6-.22,5.4A19.56,19.56,0,0,0,40,24.59a6.94,6.94,0,0,1,.16,2.79c-.2.65,3,.24,3.25-.58.46-1.5-.19-3.41-.34-4.92a26.14,26.14,0,0,1,.07-4.42,25,25,0,0,1,5.12,0c.08,1.16.16,2.32.27,3.48.09,1,.15,1.95.17,2.93a8.87,8.87,0,0,1-.19,2.91c-.65,1.73,2.66,1.59,3.14.31A13.14,13.14,0,0,0,52,21.89c-.13-2.06-.4-4.11-.47-6.17-.1-3.18-.58-6.33-.59-9.52,0-1.66-3.34-1.09-3.33.29,0,3,.41,6,.57,9.07,0,.06,0,.12,0,.19-1.64,0-3.28.14-4.93.2.17-3.9-.52-7.77-.37-11.67,0-.49-3.26-.08-3.3.88C39.43,8.93,40.07,12.67,40,16.44Z" transform="translate(0 0)"></path>
      <path d="M54,21.82c-.25.25-.15.41,0,.5,0,1.47,0,2.95-.18,4.43-.39.62.39,1,.91,1h.09c.62,0,2.2-.3,2.28-1.15a49.52,49.52,0,0,0,.2-5.3,27,27,0,0,0,3.42-4.75,25,25,0,0,1,1.67,3.86c.73,2.31,1.94,4.43,2.64,6.75.46,1.52,3.75.62,3.3-.88-.7-2.32-1.86-4.47-2.64-6.75a60.24,60.24,0,0,0-3-6.57c.85-1.64,1.7-3.29,2.47-5s1.22-3.22,2.6-4.29c.48-.38.46-.76-.22-.8a3.68,3.68,0,0,0-2.33.62,9.16,9.16,0,0,0-2.7,3.6c-.78,1.72-1.59,3.42-2.45,5.12-.06.12-.13.24-.19.37a1,1,0,0,0-.54,1.06C58.7,15,58,16.27,57.26,17.53c-.25-4.66-.81-9.32-1-14,0-1.06-3.35-.4-3.3.89.21,5.78,1,11.56,1.08,17.34Z" transform="translate(0 0)"></path>
      <path d="M85.57,15.58c-.18-.7-1.16-.71-1.92-.64,0-.29,0-.57,0-.85-.11-2.24-.14-4.53-.33-6.77C83.12,5.25,82,4.51,80,4.59a20.48,20.48,0,0,0-6.3,1.18,5.88,5.88,0,0,0-3.84,4.78c-.47,2.54.2,5.24.31,7.79.13,2.95.06,5.91.06,8.86,0,.49,3.29,0,3.29-.88,0-2.34,0-4.68,0-7,0-.69,0-1.38-.08-2.06,1.15-.5,3.1,0,4.25.12a12.45,12.45,0,0,0,2.73-.25c0,1.95.09,3.91.17,5.85,0,1,.41,3-.29,3.8-.37.44,1.25.29,1.31.28a3.36,3.36,0,0,0,1.94-.87c.8-.95.38-3.2.33-4.32-.06-1.61-.08-3.22-.12-4.83C84.69,16.89,85.75,16.3,85.57,15.58Zm-6.66-.16a24.78,24.78,0,0,0-5.65,0c-.09-1.05-.19-2.1-.26-3.16-.13-2,.1-4.7,1.93-5.89a5.9,5.9,0,0,1,2-.37,3.09,3.09,0,0,1,2.39.16c1,.68.76,3.08.76,4.1,0,1.69.18,3.37.26,5.06A10.93,10.93,0,0,1,78.91,15.42Z" transform="translate(0 0)"></path>
      <path d="M18.7,4.11a.55.55,0,0,0,.12.49v.12a2.53,2.53,0,0,1,0,.28.86.86,0,0,0,.37.45,1.83,1.83,0,0,0,1.11.19,2.65,2.65,0,0,0,1.24-.44L21.77,5c.43-.28.81-.7.61-1.15A6.36,6.36,0,0,1,22,1c0-.81-.81-1-1.5-1S18.7.5,18.7,1.29a13.26,13.26,0,0,0,.09,2.52A1.49,1.49,0,0,0,18.7,4.11Z" transform="translate(0 0)"></path>
      <path d="M80.28,33.29a19.49,19.49,0,0,0-4.85-.79c-1.61-.17-3.25-.41-4.89-.56-1.63,0-3.31,0-5,.13l-4.88.27c-6.49.28-13,.25-19.51.1S28.13,32,21.55,32c-3.29,0-6.57.1-9.87.25-1.63.28-3.24.5-4.9.91A31,31,0,0,1,2,34.2a23.76,23.76,0,0,0,5,.3c1.58,0,3.24.14,4.87.23,3.23-.17,6.49-.25,9.73-.26,6.49,0,13,.33,19.57.45s13.11.19,19.68-.11l4.91-.27c1.6-.07,3.2-.12,4.83-.06,1.62-.15,3.25-.33,4.91-.54a23.12,23.12,0,0,1,4.86-.5h.07v0a3.45,3.45,0,0,0,0-.48C80.31,33,80.31,33.17,80.28,33.29Z" transform="translate(0 0)"></path>
    </g>
  </g>
</svg>
